<?xml version="1.0" encoding="UTF-8" standalone="no"?>
<!-- Created with Inkscape (http://www.inkscape.org/) -->

<svg
   width="1000"
   height="629.41803"
   viewBox="0 0 26458333 16653352"
   version="1.1"
   id="svg1"
   sodipodi:docname="fiscalia logo 2.svg"
   inkscape:version="1.3.2 (091e20e, 2023-11-25, custom)"
   xmlns:inkscape="http://www.inkscape.org/namespaces/inkscape"
   xmlns:sodipodi="http://sodipodi.sourceforge.net/DTD/sodipodi-0.dtd"
   xmlns="http://www.w3.org/2000/svg"
   xmlns:svg="http://www.w3.org/2000/svg">
  <sodipodi:namedview
     id="namedview1"
     pagecolor="#ffffff"
     bordercolor="#666666"
     borderopacity="1.0"
     inkscape:showpageshadow="true"
     inkscape:pageopacity="0.0"
     inkscape:pagecheckerboard="false"
     inkscape:deskcolor="#d1d1d1"
     inkscape:document-units="px"
     showgrid="false"
     showborder="true"
     borderlayer="true"
     showguides="true"
     inkscape:zoom="0.712"
     inkscape:cx="500"
     inkscape:cy="314.60674"
     inkscape:window-width="1366"
     inkscape:window-height="705"
     inkscape:window-x="-8"
     inkscape:window-y="-8"
     inkscape:window-maximized="1"
     inkscape:current-layer="layer1" />
  <defs
     id="defs1" />
  <g
     inkscape:label="Capa 1"
     inkscape:groupmode="layer"
     id="layer1"
     transform="translate(2328335,-14922500)">
    <path
       id="path2"
       d="m 1320504.1,30895059 h -135048 l -80515,-458978 c -13107,-74663 -22937,-139730 -29490,-195435 h -3043 c -14043,52663 -29491,100409 -46577,143709 l -204796.03,510704 h -138559 l -193562,-476766 c -32065,-77472 -52194,-136687 -60854,-177647 h -1405 c -2809,34640 -11936,103218 -26916,206201 l -64833,448212 h -130835 l 140432,-797653 h 158219 l 199413,497597 c 26215,65535 44236,117962 53364,156815 h 3043 c 12171,-46810 29023,-96898 50556,-149794 l 206668.03,-504618 h 159625 l 144644,797887 z"
       style="fill:#fa7800;fill-opacity:1;fill-rule:nonzero;stroke:none;stroke-width:35278"
       clip-path="none" />
    <path
       id="path29"
       d="m 1625615.1,30895085 h 122878 v -797419 h -122878 z"
       style="fill:#fa7800;fill-opacity:1;fill-rule:nonzero;stroke:none;stroke-width:35277.7"
       clip-path="none" />
    <path
       id="path32"
       d="m 2852896.1,30895059 h -173199 l -362080,-489873 c -39555,-53130 -75833,-107665 -108601,-163837 6554,98302 9830,231712 9830,399294 v 254416 h -122877 v -797653 h 188412 l 341952,478404 c 33703,47279 71386,105558 113281,174838 -6553,-114218 -9596,-256288 -9596,-426210 v -227032 h 122644 v 797418 z"
       style="fill:#fa7800;fill-opacity:1;fill-rule:nonzero;stroke:none;stroke-width:35278"
       clip-path="none" />
    <path
       id="path38"
       d="m 3220920.1,30895085 h 122645 v -797419 h -122645 z"
       style="fill:#fa7800;fill-opacity:1;fill-rule:nonzero;stroke:none;stroke-width:35277.7"
       clip-path="none" />
    <path
       id="path40"
       d="m 4207243.1,30663579 c 0,71855 -31597,130368 -95259,175774 -63663,45406 -149560,67876 -258161,67876 -69045,0 -132708,-6320 -190519,-18959 l 7022,-102983 c 65534,19660 130601,29257 195434,29257 64832,0 110707,-10767 146283,-31832 41193,-23171 61790,-58045 61790,-104153 0,-48449 -36980,-87068 -110941,-116090 -68578,-25746 -136921,-51960 -205265,-78174 -74194,-39087 -111175,-94089 -111175,-165241 0,-66472 29959,-120304 90111,-161731 59917,-41428 142304,-62258 247394,-62258 58045,0 115388,4681 171326,14043 l -7021,96196 c -60152,-14043 -117027,-21065 -171561,-21065 -63662,0 -112345,11000 -146049,33235 -33938,22469 -50790,52194 -50790,89643 0,46108 36747,84025 110707,113750 68110,25745 136687,51959 205733,78407 73961,39087 110707,93855 110707,164071 z"
       style="fill:#fa7800;fill-opacity:1;fill-rule:nonzero;stroke:none;stroke-width:35278"
       clip-path="none" />
    <path
       id="path42"
       d="m 5102192.1,30199756 h -286246 v 695373 h -122644 v -695373 h -265884 v -81684 h 674774 z"
       style="fill:#fa7800;fill-opacity:1;fill-rule:nonzero;stroke:none;stroke-width:35277.7"
       clip-path="none" />
    <path
       id="path44"
       d="m 5838383.1,30895059 h -490809 v -777055 h 490809 v 81684 h -368165 v 245522 h 347802 v 81684 h -347802 v 286481 h 368165 z"
       style="fill:#fa7800;fill-opacity:1;fill-rule:nonzero;stroke:none;stroke-width:35277.7"
       clip-path="none" />
    <path
       id="path46"
       d="m 6779111.1,30895059 h -149560 l -315269,-347569 h -5617 v 347569 h -143007 v -791802 c 56407,-3042 134347,-4681 234053,-4681 211350,0 316908,68578 316908,206435 0,65769 -27150,118431 -81451,158454 -50789,38385 -118430,59918 -203158,64599 36981,36746 64131,64832 81919,84493 l 265182,282736 z m -175072,-575069 c 0,-88940 -69748,-133410 -209477,-133410 -23405,0 -51960,701 -85897,2342 v 271735 c 18958,1638 45406,2574 80280,2574 67407,0 120303,-12872 157985,-38852 37917,-25980 56875,-60854 56875,-103920 z"
       style="fill:#fa7800;fill-opacity:1;fill-rule:nonzero;stroke:none;stroke-width:35278"
       clip-path="none" />
    <path
       id="path47"
       d="m 7065474.1,30895085 h 122645 v -797419 h -122645 z"
       style="fill:#fa7800;fill-opacity:1;fill-rule:nonzero;stroke:none;stroke-width:35277.7"
       clip-path="none" />
    <path
       id="path48"
       d="m 8357168.1,30492416 c 0,128027 -44236,230542 -132006,306843 -83557,72791 -189583,109069 -317610,109069 -138794,0 -245054,-36278 -319014,-109069 -69514,-69513 -104154,-165709 -104154,-289289 0,-123580 44002,-230308 132006,-306844 83557,-72790 189349,-109068 317844,-109068 128495,0 233351,34406 309184,102983 75833,68812 113984,167114 113984,295141 z m -137857,12873 c 0,-100643 -25980,-178583 -78174,-233819 -51960,-55003 -125687,-82621 -221414,-82621 -83323,0 -152837,26214 -208073,78642 -59684,56173 -89877,131772 -89877,227265 0,95260 24342,174136 73259,229606 51491,58514 125920,87770 223520,87770 83323,0 152837,-25745 207840,-77237 62023,-56173 92919,-132708 92919,-229606"
       style="fill:#fa7800;fill-opacity:1;fill-rule:nonzero;stroke:none;stroke-width:35278"
       clip-path="none" />
    <path
       id="path49"
       d="m 9642094.1,30318165 c 0,79344 -34172,144177 -102515,194498 -68344,50321 -156582,75599 -264480,75599 h -82855 v 306843 h -122644 v -809589 c 93622,-3277 171561,-4915 233351,-4915 107899,0 191455,21299 250437,64130 59215,43066 88706,100877 88706,173668 z m -141836,25043 c 0,-102749 -72791,-154006 -218138,-154006 -42129,0 -72088,468 -89876,1169 v 312695 c 22469,3277 48215,4681 77238,4681 70450,-701 126388,-15916 168050,-45172 41895,-29491 62726,-69046 62726,-119367"
       style="fill:#fa7800;fill-opacity:1;fill-rule:nonzero;stroke:none;stroke-width:35278"
       clip-path="none" />
    <path
       id="path50"
       d="m 10664603,30586061 c 0,209244 -126623,313865 -379400,313865 -237798,0 -356696.9,-92685 -356696.9,-277586 v -524747 h 122643.9 v 516555 c 0,61790 15213,108132 45640,139495 36746,38151 98536,57343 185370,57343 86834,0 143708,-16617 181859,-49619 38385,-33236 57343,-88940 57343,-167114 v -496660 h 143241 z"
       style="fill:#fa7800;fill-opacity:1;fill-rule:nonzero;stroke:none;stroke-width:35278"
       clip-path="none" />
    <path
       id="path51"
       d="m 11605308,30662970 c 0,60152 -23406,110473 -69982,151901 -62960,54768 -158688,82152 -287651,82152 -21065,0 -55705,-238 -103920,-1169 -66705,-1405 -110473,-2106 -131538,-2106 v -784078 c 135049,-2574 226564,-3510 274076,-3510 201286,0 301695,62024 301695,186072 0,40491 -15214,77471 -45406,110707 -30428,33235 -70919,56641 -121240,69514 v 9596 c 60386,8426 106728,29724 139262,64130 29724,30895 44704,67876 44704,110707 z m -143241,-353420 c 0,-80982 -66003,-121707 -198243,-121707 -34873,0 -77705,936 -128963,2574 v 257458 c 18022,702 46811,1170 86600,1170 160560,0 240606,-46343 240606,-139262 z m 17320,354356 c 0,-90110 -85429,-135282 -255820,-135282 -44236,0 -73726,468 -88706,1169 v 277587 c 26214,3745 66705,5851 121006,5851 73960,0 130835,-14043 170156,-42363 35576,-25746 53364,-61556 53364,-106962"
       style="fill:#fa7800;fill-opacity:1;fill-rule:nonzero;stroke:none;stroke-width:35278"
       clip-path="none" />
    <path
       id="path52"
       d="m 12393178,30895059 h -460617 v -797653 h 122645 v 695373 h 347568 v 102280 z"
       style="fill:#fa7800;fill-opacity:1;fill-rule:nonzero;stroke:none;stroke-width:35277.7"
       clip-path="none" />
    <path
       id="path53"
       d="m 12648107,30895085 h 122878 v -797419 h -122878 z"
       style="fill:#fa7800;fill-opacity:1;fill-rule:nonzero;stroke:none;stroke-width:35277.7"
       clip-path="none" />
    <path
       id="path54"
       d="m 13752488,30874601 c -77706,26682 -163603,39789 -257225,39789 -146283,0 -256288,-36044 -330248,-108600 -67642,-65770 -101345,-157284 -101345,-275013 0,-127091 37448,-227733 112579,-301694 80514,-80514 197775,-120537 351314,-120537 68577,0 139963,7723 215094,23171 l -14043,97366 c -73258,-18022 -144879,-26916 -215095,-26916 -103217,0 -181859,29958 -236393,90110 -48683,55237 -73025,128963 -73025,220946 0,203626 107197,305205 321823,305205 77706,0 148390,-13341 212286,-40023 l 14044,96196 z"
       style="fill:#fa7800;fill-opacity:1;fill-rule:nonzero;stroke:none;stroke-width:35278"
       clip-path="none" />
    <path
       id="path55"
       d="m 14864356,30492416 c 0,128027 -44236,230542 -132006,306843 -83557,72791 -189583,109069 -317609,109069 -138794,0 -245054,-36278 -319015,-109069 -69513,-69513 -104153,-165709 -104153,-289289 0,-123580 44002,-230308 132006,-306844 83557,-72790 189348,-109068 317844,-109068 128495,0 233350,34406 309184,102983 75833,68812 113983,167114 113983,295141 z m -137857,12873 c 0,-100643 -25980,-178583 -78174,-233819 -51959,-55003 -125686,-82621 -221414,-82621 -83323,0 -152836,26214 -208073,78642 -59683,56173 -89876,131772 -89876,227265 0,95260 24341,174136 73258,229606 51492,58514 125921,87770 223521,87770 83323,0 152837,-25745 207839,-77237 62024,-56173 92919,-132708 92919,-229606"
       style="fill:#fa7800;fill-opacity:1;fill-rule:nonzero;stroke:none;stroke-width:35278"
       clip-path="none" />
    <path
       id="path56"
       d="m 16341534,30493025 c 0,132006 -49151,234287 -147688,306141 -93621,68812 -220712,103218 -381038,103218 -33704,0 -76769,-702 -129197,-2106 -52428,-1638 -89408,-2575 -110941,-2575 v -790865 c 194732,-3043 289523,-4447 283906,-4447 323461,0 484958,130368 484958,390635 m -135049,6319 c 0,-210180 -122175,-315269 -366995,-315269 -24809,0 -73024,1169 -144177,3510 v 621177 c 36045,4681 78642,7022 127091,7022 117963,0 210414,-25512 276885,-76536 71620,-54768 107196,-135048 107196,-240138 z"
       style="fill:#fa7800;fill-opacity:1;fill-rule:nonzero;stroke:none;stroke-width:35278"
       clip-path="none" />
    <path
       id="path57"
       d="m 17126828,30895059 h -490809 v -777055 h 490809 v 81684 h -368164 v 245522 h 347802 v 81684 h -347802 v 286481 h 368164 z"
       style="fill:#fa7800;fill-opacity:1;fill-rule:nonzero;stroke:none;stroke-width:35277.7"
       clip-path="none" />
    <path
       id="path58"
       d="m 18516518,30874601 c -77705,26682 -163603,39789 -257224,39789 -146283,0 -256288,-36044 -330248,-108600 -67642,-65770 -101345,-157284 -101345,-275013 0,-127091 37448,-227733 112579,-301694 80514,-80514 197775,-120537 351314,-120537 68577,0 139963,7723 215094,23171 l -14043,97366 c -73259,-18022 -144879,-26916 -215094,-26916 -103218,0 -181860,29958 -236394,90110 -48683,55237 -73025,128963 -73025,220946 0,203626 107197,305205 321823,305205 77706,0 148390,-13341 212286,-40023 l 14043,96196 z"
       style="fill:#fa7800;fill-opacity:1;fill-rule:nonzero;stroke:none;stroke-width:35278"
       clip-path="none" />
    <path
       id="path59"
       d="m 19560371,30895059 h -122643 v -368165 h -490809 v 368165 h -122644 v -777055 h 122644 v 327206 h 490809 v -347804 h 122643 z"
       style="fill:#fa7800;fill-opacity:1;fill-rule:nonzero;stroke:none;stroke-width:35277.7"
       clip-path="none" />
    <path
       id="path60"
       d="m 19907963,30895085 h 122877 v -797419 h -122877 z"
       style="fill:#fa7800;fill-opacity:1;fill-rule:nonzero;stroke:none;stroke-width:35277.7"
       clip-path="none" />
    <path
       id="path61"
       d="m 20862760,30895059 h -463892 v -797653 h 122643 v 695373 h 347569 v 102280 z"
       style="fill:#fa7800;fill-opacity:1;fill-rule:nonzero;stroke:none;stroke-width:35277.7"
       clip-path="none" />
    <path
       id="path62"
       d="m 21605363,30895059 h -490809 v -777055 h 490809 v 81684 h -368164 v 245522 h 347802 v 81684 h -347802 v 286481 h 368164 z"
       style="fill:#fa7800;fill-opacity:1;fill-rule:nonzero;stroke:none;stroke-width:35277.7"
       clip-path="none" />
    <path
       style="fill:#0040ad;fill-opacity:1;fill-rule:nonzero;stroke:none;stroke-width:35278"
       d="m 20713035,28625141 c -36980,0 -67875,-30193 -67875,-67173 0,-18490 6787,-36980 19894,-47513 l 427849,-333057 c 62726,-48449 164305,-48449 227032,0 l 430189,333057 c 13341,10533 19895,29023 19895,47513 0,36980 -30896,67173 -68110,67173 h -989108 z"
       id="path63" />
    <path
       style="fill:#0040ad;fill-opacity:1;fill-rule:nonzero;stroke:none;stroke-width:35278"
       d="m 20596945,26492451 c 83557,-143241 238500,-239436 416380,-239436 h 757864 l 1697352,2862935 h -733054 c -178582,0 -335398,-96898 -418018,-241542 -312227,-550727 -1052771,-1862594 -1102624,-1989450 -56407,148389 -1218246,2230992 -1218246,2230992 h -922637 z"
       id="path64" />
    <path
       style="fill:#0040ad;fill-opacity:1;fill-rule:nonzero;stroke:none;stroke-width:35278"
       d="m 11830490,28625141 c -36980,0 -67875,-30193 -67875,-67173 0,-18490 6787,-36980 19894,-47513 l 427849,-333057 c 62726,-48449 164305,-48449 227265,0 l 429956,333057 c 13341,10533 19895,29023 19895,47513 0,36980 -30895,67173 -67876,67173 z"
       id="path65" />
    <path
       style="fill:#0040ad;fill-opacity:1;fill-rule:nonzero;stroke:none;stroke-width:35278"
       d="m 6049147.1,28224677 c 0,-893615 -1997408,-703096 -1997408,-1215437 0,-203392 267288,-347335 794844,-347335 288353,0 583494,29725 850782,76301 l 49386,-482851 c -281332,-29725 -590750,-50789 -858039,-50789 -1139369,0 -1807591,351547 -1807591,859676 0,940191 1990387,690222 1990387,1236736 0,262607 -358804,376825 -822930,376825 -344526,0 -724394,-46576 -991683,-101579 l -56173,512576 c 295375,46577 632880,67642 970618,67642 1167222,0 1877573,-393912 1877573,-932000 z"
       id="path66" />
    <path
       style="fill:#0040ad;fill-opacity:1;fill-rule:nonzero;stroke:none;stroke-width:35278"
       d="m -1182855.9,29115950 c -267288,0 -484022,-215562 -484022,-481213 V 26253015 H 869086.07 v 470212 h -1615667 v 736330 h 1533749 v 449850 h -1533749 v 1206543 h -436742.97 z"
       id="path67" />
    <path
       style="fill:#0040ad;fill-opacity:1;fill-rule:nonzero;stroke:none;stroke-width:35278"
       d="m 1502902.1,28635440 v -2382425 h 920296 v 2862935 h -439785 c -265416,0 -480511,-215094 -480511,-480510"
       id="path68" />
    <path
       style="fill:#0040ad;fill-opacity:1;fill-rule:nonzero;stroke:none;stroke-width:35278"
       d="m 15337072,29115950 c -265182,0 -480276,-215094 -480276,-480276 v -2382659 h 920296 v 2372126 h 1533749 v 490809 z"
       id="path69" />
    <path
       style="fill:#0040ad;fill-opacity:1;fill-rule:nonzero;stroke:none;stroke-width:35278"
       d="m 17760691,28635440 v -2382425 h 920296 v 2862935 h -439785 c -265416,0 -480511,-215094 -480511,-480510"
       id="path70" />
    <path
       style="fill:#0040ad;fill-opacity:1;fill-rule:nonzero;stroke:none;stroke-width:35278"
       d="m 11714400,26492451 c 83557,-143241 238500,-239436 416146,-239436 h 758098 l 1697352,2862935 h -733288 c -178582,0 -335164,-96898 -418018,-241542 -311993,-550727 -1052537,-1862594 -1102624,-1989450 -56173,148389 -1218246,2230992 -1218246,2230992 h -922637 z"
       id="path71" />
    <path
       style="fill:#0040ad;fill-opacity:1;fill-rule:nonzero;stroke:none;stroke-width:35278"
       d="m 9918511.1,29013669 -105558,-491277 c -246223,67641 -632879,118665 -921232,118665 -956341,0 -1385594,-347335 -1385594,-969916 0,-554939 436041,-957276 1322399,-957276 323461,0 646923,29725 956341,84727 l 98536,-499937 c -309418,-50790 -668221,-76301 -1005725,-76301 -1589688,0 -2377277,635453 -2377277,1541706 0,711521 534577,1376700 2194247,1376700 442828,0 871847,-51024 1223629,-127091 z"
       id="path72" />
    <path
       id="path73"
       d="m 11493454,25107489 c 7723,0 468,-2481196 468,-2481196 518662,-31597 1018131,-126388 1490450,-275480 2274293,-721351 3950580,-2692546 4326703,-4841620 763481,104153 1528600,226797 2294188,367697 l -1245162,5192466 c -43066,174837 -180221,313631 -353888,360207 v -468 l -6497780,1678628 h -14745 z"
       style="fill:#0040ad;fill-opacity:1;fill-rule:nonzero;stroke:none;stroke-width:35278"
       clip-path="none" />
    <path
       id="path74"
       d="m 10306103,25107489 c -7724,0 -468,-2481196 -468,-2481196 -518661.9,-31597 -1018130.9,-126388 -1490449.9,-275480 -2274293,-721351 -3950580,-2692546 -4326703,-4841620 -763481,104153 -1528600,226797 -2294188,367697 l 1245162,5192466 c 43066,174837 179987,313631 353888,360207 v -468 l 6497778.9,1678628 h 14746 z"
       style="fill:#0040ad;fill-opacity:1;fill-rule:nonzero;stroke:none;stroke-width:35278"
       clip-path="none" />
    <path
       id="path75"
       d="M 19601868,17398018 C 13868273,16317162 8066332.1,16316694 2198390.1,17396614 l 1170,-636859 c 5779938,-1568154 11752034.9,-1567686 17401604.9,1170 z"
       style="fill:#fa7800;fill-opacity:1;fill-rule:nonzero;stroke:none;stroke-width:35278"
       clip-path="none"
       sodipodi:nodetypes="ccccc" />
    <path
       id="path76"
       d="m 10899497,17607262 c 1633456,0 2957729,909764 2957729,2032048 0,1122284 -1324273,2032282 -2957729,2032282 -1633454.9,0 -2957726.9,-909998 -2957726.9,-2032282 0,-1122284 1324272,-2032048 2957726.9,-2032048"
       style="fill:#0040ad;fill-opacity:1;fill-rule:nonzero;stroke:none;stroke-width:35278"
       clip-path="none" />
  </g>
</svg>
